<svg width="30" height="53" viewBox="0 0 30 53" fill="none" xmlns="http://www.w3.org/2000/svg">
<path d="M7.39798 34.1638C7.4391 35.6222 8.6332 36.7831 10.0922 36.7831H11.559C13.0217 36.7831 14.2189 35.6192 14.26 34.157V34.157C14.26 30.7056 16.4019 29.8052 19.4301 28.8298C22.4677 27.9519 25.1413 26.0933 27.0468 23.5348C28.9524 20.9763 29.9861 17.857 29.9917 14.6487C30.0582 12.6899 29.7237 10.7384 29.0094 8.91765C28.2951 7.09694 27.2165 5.4467 25.8418 4.07139C24.4672 2.69608 22.8265 1.62564 21.0236 0.927839C19.2207 0.230033 17.2948 -0.0799458 15.3679 0.01752C13.3315 -0.0275775 11.3073 0.348018 9.41803 1.12153C7.52879 1.89504 5.8139 3.05034 4.37737 4.51736C2.94083 5.98439 1.8126 7.73256 1.06108 9.65586C0.720905 10.5265 0.461126 11.4247 0.283768 12.3391C-0.0749698 14.1885 1.50666 15.706 3.39058 15.706H3.53441C5.40687 15.706 6.8558 14.111 7.53142 12.3646V12.3646C7.94278 11.3014 8.55891 10.3322 9.34371 9.51399C10.1285 8.69575 11.0662 8.04489 12.1018 7.59954C13.1374 7.15419 14.2501 6.92331 15.3746 6.92045C16.3887 6.86072 17.4036 7.02349 18.3503 7.39769C19.297 7.77189 20.1533 8.34875 20.861 9.08906C21.5687 9.82938 22.1113 10.7158 22.4517 11.6881C22.7922 12.6604 22.9227 13.6957 22.8342 14.7238C22.7895 16.3877 22.2199 17.9931 21.2094 19.3034C20.1988 20.6137 18.8007 21.5597 17.221 22.0019L15.1824 22.8234C14.917 22.9304 14.6433 23.0152 14.3686 23.0955C12.1565 23.7424 10.2343 25.1623 8.94636 27.1118C7.57852 29.1823 7.02592 31.6991 7.39798 34.1638V34.1638ZM10.7954 52.9968C11.4529 53.0206 12.1084 52.9101 12.7231 52.6721C13.3379 52.434 13.8994 52.0732 14.3745 51.6109C14.8496 51.1486 15.2287 50.5942 15.4892 49.9805C15.7498 49.3668 15.8866 48.7063 15.8916 48.0379C15.8857 47.3702 15.7483 46.7104 15.4873 46.0975C15.2263 45.4846 14.8471 44.931 14.3721 44.4694C13.8971 44.0078 13.3359 43.6476 12.7216 43.41C12.1073 43.1723 11.4523 43.0621 10.7954 43.0858C10.1385 43.0621 9.48358 43.1723 8.86927 43.41C8.25497 43.6476 7.69375 44.0078 7.21873 44.4694C6.74372 44.931 6.36453 45.4846 6.10356 46.0975C5.84259 46.7104 5.70511 47.3702 5.69925 48.0379C5.70422 48.7063 5.84104 49.3668 6.10161 49.9805C6.36219 50.5942 6.74124 51.1486 7.21635 51.6109C7.69145 52.0732 8.25298 52.434 8.86772 52.6721C9.48247 52.9101 10.138 53.0206 10.7954 52.9968Z" fill="white"/>
</svg>
